<svg width="24" height="24" viewBox="0 0 24 24" fill="none" xmlns="http://www.w3.org/2000/svg">
<path opacity="0.88" d="M5.98438 5.3291C8.61793 2.69445 12.4966 2.02965 15.7363 3.36426C16.4531 3.63081 17.0781 4.01061 17.5654 4.36328L14.8604 5.61426C12.3414 4.55626 9.45555 5.27571 7.69434 7.03906C5.38724 9.34702 4.86328 13.2961 7.37012 15.9678L7.62109 16.2246L0 23.04C0.483249 22.3738 1.08372 21.7446 1.68164 21.1152C3.36914 19.3396 5.04436 17.5799 4.02246 15.0928C2.65446 11.765 3.45119 7.86543 5.98438 5.3291ZM23.8223 0.248047C21.3135 3.70706 20.0883 5.39887 21.0713 9.63086L21.0654 9.62402C21.7433 12.5046 21.0183 15.6994 18.6777 18.043C15.7267 20.9995 11.0042 21.6581 7.11523 18.9971L9.82617 17.7402C12.3082 18.7162 15.0239 18.287 16.9756 16.333C18.9272 14.379 19.3657 11.5331 18.3848 9.16504C18.1983 8.71603 17.6392 8.60351 17.248 8.89258L9.26758 14.791L20.6992 3.29492V3.30469L24 0C23.9407 0.0839897 23.8815 0.166105 23.8223 0.248047Z" fill="black"/>
</svg>
