<svg width="19" height="20" viewBox="0 0 19 20" fill="none" xmlns="http://www.w3.org/2000/svg">
<path opacity="0.88" fill-rule="evenodd" clip-rule="evenodd" d="M9.21231 0C9.51513 0 9.76068 0.245553 9.76068 0.548372V5.52474L15.1248 0.16071C15.2817 0.00392358 15.5176 -0.0430963 15.7224 0.0417305C15.9273 0.126605 16.0609 0.326615 16.0609 0.548372V6.28301H17.8759C18.1787 6.28302 18.4241 6.52859 18.4241 6.8314V14.7244C18.4241 15.0272 18.1787 15.2727 17.8759 15.2727H16.0607V19.4488C16.0607 19.6705 15.9272 19.8704 15.7222 19.9552C15.5173 20.0402 15.2816 19.9932 15.1248 19.8364L9.76068 14.4724V19.4516C9.76065 19.7546 9.51511 20 9.21231 20C8.90952 20 8.66397 19.7546 8.66392 19.4516V14.4726L3.30005 19.8364C3.14324 19.9932 2.90738 20.0402 2.70249 19.9552C2.49765 19.8704 2.36403 19.6705 2.36401 19.4488V15.2727H0.548387C0.245569 15.2727 0 15.0272 0 14.7244V6.8314C3.17703e-05 6.52861 0.245584 6.28304 0.548387 6.28301H2.36401V0.548372C2.36401 0.326615 2.49762 0.126605 2.70249 0.0417305C2.90738 -0.043128 3.14324 0.0039077 3.30005 0.16071L8.66392 5.52443V0.548372C8.66394 0.245569 8.90949 1.58852e-05 9.21231 0ZM3.46077 12.6094V18.1249L8.66392 12.9217V8.0569L3.46077 12.6094ZM9.76068 12.9214L14.9642 18.1249V14.7299C14.9642 14.728 14.964 14.7261 14.964 14.7244C14.964 14.7225 14.9642 14.7206 14.9642 14.7187V12.6094L9.76068 8.0566V12.9214ZM15.8735 11.948C15.9926 12.0521 16.0607 12.2027 16.0607 12.3608V14.1762H17.3276V7.37977H10.6522L15.8735 11.948ZM1.09676 14.1762H2.36401V12.3608C2.36401 12.2027 2.4324 12.0521 2.55139 11.948L7.77256 7.37977H1.09676V14.1762ZM3.46077 6.28301H7.87154L3.46077 1.87208V6.28301ZM10.5535 6.28301H14.9644V1.87208L10.5535 6.28301Z" fill="black"/>
</svg>
