<svg width="20" height="20" viewBox="0 0 20 20" fill="none" xmlns="http://www.w3.org/2000/svg">
<path d="M0 2.52246V17.4775C0 18.8892 1.11084 20 2.52246 20H17.4775C18.1685 20 18.8286 19.6694 19.2495 19.2495C19.7002 18.7988 20 18.228 20 17.4775V2.52246C20 1.11084 18.8892 0 17.4775 0H2.52246C1.77197 0 1.20117 0.300774 0.750493 0.750493C0.329602 1.17138 0 1.83155 0 2.52246ZM2.70312 4.50392C2.70312 3.54298 3.48436 2.70216 4.4453 2.70216C5.43603 2.70216 6.24706 3.54298 6.24706 4.50392C6.24706 5.49464 5.43603 6.27589 4.4453 6.27589C3.48436 6.27589 2.70312 5.49464 2.70312 4.50392ZM7.5376 16.8462V7.6875C7.5376 7.47706 7.74804 7.29736 7.89795 7.29736H10.4502C10.8106 7.29736 10.8106 7.71825 10.8106 7.98828C11.5313 7.26757 12.4624 7.08692 13.4233 7.08692C15.7661 7.08692 17.2671 8.19776 17.2671 10.6606V16.8472C17.2671 17.0576 17.0864 17.2373 16.9067 17.2373H14.2642C14.0537 17.2373 13.9038 17.0269 13.9038 16.8472V11.2612C13.9038 10.3301 13.6338 9.81982 12.5825 9.81982C11.2612 9.81982 10.9307 10.6904 10.9307 11.8618V16.8472C10.9307 17.0576 10.7202 17.2373 10.5098 17.2373H7.89699C7.74708 17.2373 7.53664 17.0269 7.53664 16.8472L7.5376 16.8462ZM2.7627 16.8462V7.6875C2.7627 7.47706 2.97314 7.29736 3.12305 7.29736H5.73584C5.97607 7.29736 6.12598 7.44727 6.12598 7.6875V16.8462C6.12598 17.0566 5.94532 17.2363 5.73584 17.2363H3.12305C2.94239 17.2363 2.7627 17.0259 2.7627 16.8462Z" fill="#554F4F"/>
</svg>
