<svg width="24" height="24" viewBox="0 0 24 24" fill="none" xmlns="http://www.w3.org/2000/svg">
<g>
<path fill-rule="evenodd" clip-rule="evenodd" d="M14.3801 5.8044C14.1644 5.67909 13.8776 5.59361 13.3729 5.54764C12.8577 5.50073 12.1932 5.5 11.24 5.5H9.76C8.80677 5.5 8.14225 5.50073 7.62714 5.54764C7.12243 5.59361 6.83563 5.67909 6.6199 5.8044C6.28183 6.00076 6.00076 6.28183 5.80439 6.6199C5.67908 6.83564 5.59361 7.12243 5.54764 7.62714C5.50072 8.14225 5.5 8.80677 5.5 9.76V11.24C5.5 12.1932 5.50072 12.8577 5.54764 13.3729C5.59361 13.8776 5.67908 14.1644 5.80439 14.3801C6.00076 14.7182 6.28183 14.9992 6.6199 15.1956C6.72578 15.2571 6.84816 15.3087 7.00424 15.3508C7.00102 15.1026 7.00025 14.8373 7.00006 14.5539C7.00001 14.4829 7 14.4107 7 14.3373C7 14.3129 7 14.2883 7 14.2636V14.24V12.76V12.724C6.99999 11.8152 6.99998 11.0822 7.05382 10.4911C7.05729 10.453 7.061 10.4152 7.06498 10.3777C7.12464 9.81542 7.2443 9.31932 7.50732 8.8665C7.52778 8.83129 7.54878 8.79644 7.57033 8.76198C7.89353 8.24505 8.33826 7.81415 8.8665 7.50733C8.92688 7.47226 8.98802 7.43974 9.04999 7.40957C9.48377 7.19838 9.95792 7.10238 10.4911 7.05382C10.565 7.04709 10.6411 7.04121 10.7195 7.03605C11.2682 6.99999 11.9288 6.99999 12.724 7L12.76 7H14.24H14.2638L14.276 7C14.6657 7 15.0231 6.99999 15.3508 7.00424C15.3087 6.84816 15.2571 6.72578 15.1956 6.6199C14.9992 6.28183 14.7182 6.00076 14.3801 5.8044ZM16.8996 7.10044C16.8311 6.64939 16.711 6.2424 16.4927 5.86651C16.1654 5.30305 15.6969 4.8346 15.1335 4.50733C14.6505 4.22677 14.1182 4.10932 13.5089 4.05382C12.9178 3.99998 12.1848 3.99999 11.276 4H11.24H9.76H9.72402C8.8152 3.99999 8.08223 3.99998 7.49108 4.05382C6.88176 4.10932 6.34951 4.22677 5.8665 4.50733C5.30305 4.8346 4.8346 5.30305 4.50732 5.86651C4.22677 6.34951 4.10932 6.88176 4.05382 7.49109C3.99998 8.08222 3.99999 8.81516 4 9.72395V9.76V11.24V11.276C3.99999 12.1848 3.99998 12.9178 4.05382 13.5089C4.10932 14.1182 4.22677 14.6505 4.50732 15.1335C4.8346 15.6969 5.30305 16.1654 5.8665 16.4927C6.24239 16.711 6.64939 16.8311 7.10044 16.8996C7.1688 17.3497 7.2884 17.7566 7.50732 18.1335C7.8346 18.6969 8.30305 19.1654 8.8665 19.4927C9.34951 19.7732 9.88176 19.8907 10.4911 19.9462C11.0822 20 11.8152 20 12.724 20H12.76H14.24H14.276C15.1848 20 15.9178 20 16.5089 19.9462C17.1182 19.8907 17.6505 19.7732 18.1335 19.4927C18.6969 19.1654 19.1654 18.6969 19.4927 18.1335C19.7732 17.6505 19.8907 17.1182 19.9462 16.5089C20 15.9178 20 15.1848 20 14.276V14.24V12.76V12.724C20 11.8152 20 11.0822 19.9462 10.4911C19.8907 9.88176 19.7732 9.34951 19.4927 8.8665C19.1654 8.30305 18.6969 7.8346 18.1335 7.50733C17.7566 7.2884 17.3497 7.1688 16.8996 7.10044ZM16.1911 8.53336C16.2538 8.53757 16.3143 8.54231 16.3729 8.54764C16.8776 8.59361 17.1644 8.67909 17.3801 8.8044C17.7182 9.00076 17.9992 9.28183 18.1956 9.6199C18.3209 9.83564 18.4064 10.1224 18.4524 10.6271C18.4993 11.1423 18.5 11.8068 18.5 12.76V14.24C18.5 15.1932 18.4993 15.8578 18.4524 16.3729C18.4064 16.8776 18.3209 17.1644 18.1956 17.3801C17.9992 17.7182 17.7182 17.9992 17.3801 18.1956C17.1644 18.3209 16.8776 18.4064 16.3729 18.4524C15.8578 18.4993 15.1932 18.5 14.24 18.5H12.76C11.8068 18.5 11.1422 18.4993 10.6271 18.4524C10.1224 18.4064 9.83564 18.3209 9.6199 18.1956C9.28183 17.9992 9.00076 17.7182 8.80439 17.3801C8.67909 17.1644 8.59361 16.8776 8.54764 16.3729C8.54231 16.3143 8.53757 16.2538 8.53336 16.1912L8.53189 16.1684C8.52092 15.9979 8.51372 15.8127 8.509 15.6088C8.50023 15.2284 8.5 14.7807 8.5 14.24V12.76C8.5 11.8068 8.50072 11.1423 8.54764 10.6271C8.59361 10.1224 8.67908 9.83564 8.80439 9.6199C9.00076 9.28183 9.28183 9.00076 9.6199 8.8044C9.83563 8.67909 10.1224 8.59361 10.6271 8.54764C11.1422 8.50073 11.8068 8.5 12.76 8.5H14.24C14.7737 8.5 15.2169 8.50023 15.594 8.50866C15.8038 8.51338 15.9938 8.52065 16.1684 8.53189L16.1911 8.53336Z" fill="#002E71"/>
</g>
</svg>
