<svg xmlns="http://www.w3.org/2000/svg" width="48" height="48" fill="none" viewBox="0 0 48 48">
  <rect width="48" height="48" fill="#2B2525" rx="12"/>
  <path fill="#5296FF" stroke="#5296FF" stroke-width=".95" d="M19.926 14.84c.096.059.165.097.225.131.052.03.132.072.204.13.166.136.25.317.334.488l.128.261-.174.233a15.16 15.16 0 0 1-.38.484 2.857 2.857 0 0 0-.57.941l.332.277-.29.364c-1.56 1.95-3.241 3.682-4.355 5.78-.104.194-.254.342-.303.398a.514.514 0 0 0-.036.044l-.047.504-.512-.095-.414-.078-.188-.035-.111-.157c-.461-.649-.3-1.326-.03-1.842.256-.485.67-.944.92-1.247.042-.07.1-.16.184-.234a.89.89 0 0 1 .138-.1l.114-.064.147-.085c-.065-.268-.026-.546.038-.777a2.69 2.69 0 0 1 .296-.67 1.89 1.89 0 0 1 .438-.512l.708-.537c.04-.07.09-.15.152-.238l.19-.24a22.9 22.9 0 0 1 .254-.29c.072-.16.17-.389.284-.589.12-.213.29-.45.54-.626l-.006-.05-.022-.162.084-.141a4.6 4.6 0 0 1 .51-.713c.204-.23.473-.47.8-.594l.219-.083.199.123Z"/>
  <path fill="#5296FF" stroke="#5296FF" stroke-width=".95" d="M18.875 16.203c.21.118.253.14.463.214l.382.135-.073.4-.026.142-.043.236-.216.106c-.184.09-.235.202-.367.468a1.652 1.652 0 0 1-.312.461c-.17.168-.387.282-.665.333l-.303.057-.174-.253-.207-.296-.155-.223.114-.248c.073-.159.18-.423.31-.65.132-.233.322-.494.612-.674l.002-.004.222-.449.436.245Zm-.727.357-.003.007.003-.006v-.003.002Z"/>
  <mask id="a" width="13" height="22" x="8.752" y="13.243" fill="#000" maskUnits="userSpaceOnUse">
    <path fill="#fff" d="M8.752 13.243h13v22h-13z"/>
    <path d="M19.676 15.243c.427.264.391.157.587.555-.587.783-.737.787-1.1 1.763.071.175.059.172.202.29-1.521 1.903-3.263 3.705-4.405 5.854-.138.261-.367.353-.39.608-1.143 2.335-2.65 4.542-1.759 7.188l.649.52c2.446.255 3.874-.254 6.097-1.232.463 1.108.643.14.671 1.373-.289.128-1.006.202-1.354.25-1.065 1.065-6.638 1.476-7.356.337l.512.08.052-.074c-.146-.2-.295-.417-.458-.603-.232.052-.126.002-.316.178.006.235.046.14-.062.312-.68-.196-1.42-1.77-1.48-2.394-.155-1.567 1.066-5.4 2.03-6.536.15-.433.993-1.827 1.294-2.209.485.081.486-1.255 1.038-1.427.597-.184.69-.89 1.093-1.322.34-.364.66-1.065 1.148-1.221-.004.285-.158.733-.04.891.51-.335.958-.987 1.55-1.418-.352.54-1.301 1.895-1.409 2.463.646-.426.441-.605.952-1.192.1-.115.2-.23.302-.342.175-.38.353-.884.747-1.124.164-.1.058.039.172-.193l-.036-.271c.237-.401.623-.934 1.07-1.104Zm-8.869 15.84c-.326.57-.223 1.162.5 1.248.182-.348.212-.283.205-.626a9.305 9.305 0 0 0-.49-.495l-.215-.127Zm1.317-6.262c-.604.491-1.36 1.987-1.47 2.804l.05.04c.126-.33.245-.66.359-.994l.087.044c-.014.515-.28 1.045-.354 1.66l.22-.103c-.084-.765 1.017-2.346 1.108-3.451Z"/>
  </mask>
  <path fill="#5296FF" d="M19.676 15.243c.427.264.391.157.587.555-.587.783-.737.787-1.1 1.763.071.175.059.172.202.29-1.521 1.903-3.263 3.705-4.405 5.854-.138.261-.367.353-.39.608-1.143 2.335-2.65 4.542-1.759 7.188l.649.52c2.446.255 3.874-.254 6.097-1.232.463 1.108.643.14.671 1.373-.289.128-1.006.202-1.354.25-1.065 1.065-6.638 1.476-7.356.337l.512.08.052-.074c-.146-.2-.295-.417-.458-.603-.232.052-.126.002-.316.178.006.235.046.14-.062.312-.68-.196-1.42-1.77-1.48-2.394-.155-1.567 1.066-5.4 2.03-6.536.15-.433.993-1.827 1.294-2.209.485.081.486-1.255 1.038-1.427.597-.184.69-.89 1.093-1.322.34-.364.66-1.065 1.148-1.221-.004.285-.158.733-.04.891.51-.335.958-.987 1.55-1.418-.352.54-1.301 1.895-1.409 2.463.646-.426.441-.605.952-1.192.1-.115.2-.23.302-.342.175-.38.353-.884.747-1.124.164-.1.058.039.172-.193l-.036-.271c.237-.401.623-.934 1.07-1.104Zm-8.869 15.84c-.326.57-.223 1.162.5 1.248.182-.348.212-.283.205-.626a9.305 9.305 0 0 0-.49-.495l-.215-.127Zm1.317-6.262c-.604.491-1.36 1.987-1.47 2.804l.05.04c.126-.33.245-.66.359-.994l.087.044c-.014.515-.28 1.045-.354 1.66l.22-.103c-.084-.765 1.017-2.346 1.108-3.451Z"/>
  <path fill="#5296FF" d="m19.676 15.243.5-.808-.399-.246-.438.166.337.888Zm.587.555.76.57.35-.467-.258-.523-.852.42Zm-1.1 1.763-.89-.331-.128.345.137.34.882-.354Zm.202.29.742.594.58-.726-.713-.596-.61.729Zm-4.405 5.854.84.447-.84-.447Zm-.39.608.853.417.077-.156.016-.174-.946-.087ZM12.81 31.5l-.9.303.088.264.217.174.595-.74Zm.649.52-.595.742.218.175.278.029.098-.945Zm6.097-1.232.877-.366-.373-.893-.886.39.382.87Zm.671 1.373.383.87.581-.256-.014-.636-.95.023Zm-1.354.25-.13-.94-.316.044-.225.225.672.672Zm-7.356.337.145-.939-2.06-.318 1.111 1.764.804-.507Zm.512.08-.145.938.581.09.34-.48-.776-.549Zm.052-.074.775.548.393-.555-.4-.55-.768.557Zm-.458-.603.717-.624-.372-.427-.553.124.208.927Zm-.316.178-.646-.696-.314.292.01.428.95-.024Zm-.062.312-.264.913.684.197.382-.6-.802-.51Zm-1.48-2.394-.946.093.945-.093Zm2.03-6.536.724.614.115-.135.058-.168-.898-.31Zm1.294-2.209.157-.937-.555-.093-.348.442.746.588Zm1.038-1.427-.28-.907.28.907Zm1.093-1.322-.694-.648.694.648Zm1.148-1.221.95.011.015-1.318-1.255.402.29.905Zm-.04.891-.763.567.535.719.749-.492-.521-.794Zm1.55-1.418.796.518-1.356-1.286.56.768ZM16.47 19.47l-.933-.176-.417 2.207 1.874-1.238-.524-.793Zm.952-1.192.717.624.004-.005-.72-.62Zm.302-.342.705.637.097-.108.06-.131-.862-.398Zm.747-1.124L17.978 16l.493.812Zm.172-.193.852.42.128-.26-.038-.286-.942.126Zm-.036-.271-.818-.483-.167.283.043.326.942-.126Zm-7.8 14.736.483-.817-.829-.49-.478.835.824.472Zm.5 1.248-.113.944.652.078.303-.582-.842-.44Zm.205-.626.95-.02-.007-.358-.243-.264-.7.642Zm-.49-.495.65-.693-.077-.071-.09-.054-.483.818Zm1.102-6.39.947.079.184-2.224-1.73 1.409.6.737Zm-1.47 2.805-.94-.125-.072.538.427.335.586-.748Zm.05.04-.586.747 1.014.795.46-1.204-.887-.339Zm.359-.994.429-.848-.976-.493-.352 1.035.899.306Zm.087.044.95.025.016-.601-.537-.272-.43.848Zm-.354 1.66-.943-.114-.204 1.697 1.55-.723-.403-.86Zm.22-.103.402.86.617-.287-.075-.677-.944.104Zm8.66-13.028-.5.808c.128.078.223.13.282.163l.032.018.009.005a.107.107 0 0 1-.001 0 1.098 1.098 0 0 1-.04-.03.605.605 0 0 1-.081-.079.467.467 0 0 1-.037-.05l.017.031.054.108.852-.42.852-.42c-.07-.143-.197-.431-.46-.645-.11-.09-.228-.152-.272-.177-.06-.034-.121-.067-.207-.12l-.5.807Zm.587.554-.76-.57c-.135.18-.244.315-.345.44-.098.119-.204.25-.304.39-.22.313-.383.64-.58 1.172l.89.33.89.332c.165-.444.26-.607.351-.736.056-.08.12-.158.227-.29.103-.127.233-.286.391-.498l-.76-.57Zm-1.1 1.763-.88.355.046.116c.02.046.055.128.114.217.115.175.268.294.312.332l.61-.73.61-.728a3.642 3.642 0 0 1-.035-.029c-.007-.006-.005-.005 0 0a.585.585 0 0 1 .09.111c.036.054.053.096.05.09a1.391 1.391 0 0 1-.035-.089l-.881.355Zm.202.29-.742-.592c-1.445 1.806-3.304 3.747-4.502 6l.84.446.838.446c1.087-2.045 2.71-3.708 4.308-5.706l-.742-.593Zm-4.405 5.854-.838-.446c.006-.01.008-.012-.006.005-.036.043-.026.028-.105.118a1.45 1.45 0 0 0-.387.843l.946.088.946.088a.538.538 0 0 1-.064.207c-.024.043-.043.06-.019.033l.052-.056c.023-.026.054-.06.087-.1.069-.082.152-.192.227-.333l-.839-.447Zm-.39.608-.854-.418c-.528 1.08-1.252 2.338-1.685 3.584-.454 1.305-.652 2.744-.12 4.325l.9-.303.9-.303c-.358-1.064-.248-2.052.115-3.096.383-1.102.983-2.116 1.597-3.372l-.853-.417ZM12.81 31.5l-.595.741.649.52.595-.74.594-.741-.648-.52-.595.74Zm.649.52-.099.946c2.691.28 4.302-.307 6.579-1.308l-.383-.87-.382-.87c-2.17.955-3.416 1.386-5.617 1.158l-.098.945Zm6.097-1.232-.876.367c.137.33.292.6.493.806.227.232.476.326.472.324a.769.769 0 0 1-.237-.183.7.7 0 0 1-.147-.263c-.01-.03.009.026.016.344l.95-.021.95-.022c-.007-.298-.022-.583-.087-.814a1.146 1.146 0 0 0-.627-.755c-.11-.053.007-.002.069.062.036.037-.006.013-.1-.21l-.876.365Zm.671 1.373-.383-.869c.012-.005-.016.007-.11.029-.085.019-.19.038-.309.056-.254.04-.471.064-.683.094l.132.94.131.941c.136-.019.451-.056.715-.098.241-.037.614-.102.89-.223l-.383-.87Zm-1.354.25-.671-.671-.018.015a.744.744 0 0 1-.059.04c-.053.032-.126.07-.222.112-.194.084-.45.168-.757.245-.616.153-1.375.262-2.136.306-.764.044-1.487.02-2.037-.07a2.715 2.715 0 0 1-.603-.157c-.144-.062-.107-.081-.05.01l-.803.507-.804.507c.238.377.606.593.908.723.319.136.68.226 1.045.285.73.12 1.602.14 2.454.091a13.805 13.805 0 0 0 2.485-.359 6.853 6.853 0 0 0 1.054-.345c.305-.132.632-.313.886-.567l-.671-.672Zm-7.356.337-.145.94.512.078.145-.939.145-.938-.512-.08-.145.94Zm.512.08.776.548.051-.074-.775-.548-.776-.548-.052.073.776.548Zm.052-.074.769-.557c-.127-.175-.311-.442-.51-.67l-.716.624-.717.623c.126.145.24.31.404.538l.77-.558Zm-.458-.603-.208-.927c-.059.013-.044.009-.109.022-.031.007-.189.037-.353.138a1.07 1.07 0 0 0-.169.128.63.63 0 0 0-.06.06l-.063.061.646.696.646.697c.066-.061.108-.105.131-.129l.006-.005-.016.015a.817.817 0 0 1-.36.195l-.011.003a.02.02 0 0 0-.003 0h.002l.008-.002.029-.006c.024-.005.055-.01.093-.02l-.209-.926Zm-.316.178-.95.024c.003.091.009.157.014.202l.001.012v.007-.01a.88.88 0 0 1 .062-.393c.024-.06.049-.101.053-.108l-.005.007-.04.062.803.509.802.51.028-.045.04-.063a1.047 1.047 0 0 0 .146-.675l-.001-.018a.457.457 0 0 1-.003-.044l-.95.023Zm-.062.312.263-.913c.084.025.057.046-.066-.09a2.856 2.856 0 0 1-.34-.497c-.25-.448-.38-.864-.392-.987l-.946.093-.945.093c.049.5.32 1.184.625 1.728.16.288.357.585.584.838.21.234.53.525.953.648l.264-.913Zm-1.48-2.394.945-.092c-.026-.262.003-.694.106-1.261.1-.552.257-1.175.451-1.792.194-.618.418-1.215.647-1.717.236-.518.45-.876.605-1.06l-.725-.614-.724-.614c-.326.385-.626.932-.885 1.5a17.158 17.158 0 0 0-.731 1.937 17.036 17.036 0 0 0-.508 2.022c-.113.627-.179 1.262-.127 1.784l.945-.093Zm2.03-6.536.897.31.003-.007a15.427 15.427 0 0 1 .507-.941c.267-.45.526-.846.634-.983l-.747-.588-.746-.588c-.193.245-.507.738-.775 1.188-.256.432-.559.974-.671 1.299l.897.31Zm1.294-2.209-.157.937c.677.114 1.083-.342 1.24-.578.147-.224.247-.501.3-.643a2.76 2.76 0 0 1 .151-.361c.043-.075-.01.063-.214.126l-.282-.908-.28-.907c-.482.15-.742.518-.87.74-.132.23-.227.49-.283.641-.034.09-.058.153-.081.206-.024.055-.033.068-.028.06.003-.004.053-.082.169-.153a.724.724 0 0 1 .492-.097l-.157.937Zm1.038-1.427.281.908c.652-.202.98-.691 1.158-.996.046-.079.088-.157.123-.221.038-.069.067-.123.097-.175.06-.105.1-.159.128-.19l-.694-.648-.694-.648a2.89 2.89 0 0 0-.386.537 6.275 6.275 0 0 0-.12.218l-.094.168c-.118.202-.134.157-.08.14l.281.907Zm1.093-1.322.694.649c.131-.14.246-.297.333-.418.1-.14.167-.238.247-.343.076-.1.131-.161.172-.197.04-.037.037-.022-.009-.008l-.29-.904-.29-.905c-.549.176-.905.614-1.093.861-.104.136-.21.29-.282.39a2.429 2.429 0 0 1-.176.227l.694.648Zm1.148-1.221-.95-.012-.002.023-.011.08-.043.266a2.31 2.31 0 0 0-.028.396c.004.131.026.43.231.705l.763-.567.762-.567a.75.75 0 0 1 .127.263.516.516 0 0 1 .016.11c0 .017-.001.004.01-.067l.017-.109.022-.138c.014-.093.034-.23.036-.372l-.95-.011Zm-.04.891.52.794c.362-.236.676-.567.908-.807.262-.272.464-.48.68-.637l-.559-.768-.559-.768c-.374.273-.692.607-.93.853-.267.278-.432.44-.582.539l.522.794Zm1.55-1.418-.797-.518c-.155.239-.507.753-.807 1.24-.154.249-.31.513-.435.762-.116.227-.25.52-.303.803l.933.176.934.177c-.003.012 0-.009.025-.071.024-.058.058-.133.104-.223.092-.183.217-.397.358-.625.289-.468.588-.9.784-1.203l-.797-.518ZM16.47 19.47l.524.793c.448-.296.667-.562.837-.874.12-.22.138-.292.308-.487l-.717-.624-.716-.624c-.342.392-.476.702-.543.826-.024.044-.032.052-.04.06a.98.98 0 0 1-.176.137l.523.793Zm.952-1.192.721.619c.093-.108.188-.216.286-.324l-.705-.637-.704-.637c-.107.117-.213.237-.318.36l.72.619Zm.302-.342.863.398.072-.161.065-.147c.043-.094.08-.17.117-.236.08-.138.124-.166.123-.166l-.493-.812-.493-.812c-.395.24-.636.584-.789.852-.142.25-.269.559-.328.686l.863.398Zm.747-1.124.493.812a.616.616 0 0 1-.129.055c-.04.012-.08.02-.06.016a.96.96 0 0 0 .69-.59l.005-.012.025-.054-.852-.42-.852-.421a2.7 2.7 0 0 0-.08.174c0 .005-.002.008-.003.01l-.002.006.01-.023a.908.908 0 0 1 .247-.326.937.937 0 0 1 .362-.19l.035-.008c.012-.002-.04.008-.093.025a1.31 1.31 0 0 0-.289.134l.493.812Zm.172-.193.942-.126-.036-.27-.942.125-.942.126.036.27.942-.125Zm-.036-.271.818.483c.1-.17.22-.348.348-.49.062-.07.118-.123.165-.16a.519.519 0 0 1 .075-.048l-.337-.889-.337-.888c-.43.163-.76.467-.986.722a5.102 5.102 0 0 0-.564.787l.818.483Zm-7.8 14.736-.824-.472c-.238.416-.412.994-.222 1.573.218.666.802 1.015 1.433 1.09l.113-.943.113-.943c-.06-.007-.039-.016.013.021a.364.364 0 0 1 .133.184c.021.064.012.098.014.084a.423.423 0 0 1 .052-.122l-.825-.472Zm.5 1.248.842.44c.035-.066.06-.11.087-.156.02-.032.076-.126.12-.231.117-.277.11-.535.106-.698l-.95.02-.95.019.001.076v.004a.509.509 0 0 1 .041-.157c.01-.023.018-.036.017-.034a1.287 1.287 0 0 1-.024.04c-.03.051-.075.13-.132.238l.842.44Zm.205-.626.7-.642c-.173-.189-.354-.37-.54-.546l-.65.693-.65.694c.153.142.3.29.44.444l.7-.643Zm-.49-.495.483-.818-.215-.127-.483.818-.483.818.215.127.483-.818Zm1.102-6.39-.6-.736c-.458.373-.87 1.014-1.164 1.58-.3.578-.572 1.27-.647 1.836l.942.125.942.125c.033-.25.193-.715.45-1.212.264-.51.532-.862.677-.98l-.6-.737Zm-1.47 2.805-.585.748.05.039.586-.748.586-.747-.05-.04-.586.748Zm.05.04.888.338c.13-.34.253-.682.37-1.025l-.899-.307-.9-.306c-.11.323-.225.643-.346.96l.888.34Zm.359-.994-.429.848.087.044.429-.848.429-.848-.087-.044-.429.848Zm.087.044-.95-.025c-.003.121-.037.272-.118.558-.072.253-.181.617-.229 1.013l.943.113.944.114c.026-.219.086-.427.17-.722.074-.261.18-.632.19-1.026l-.95-.025Zm-.354 1.66.402.86.22-.102-.402-.861-.402-.861-.22.102.402.861Zm.22-.103.944-.104c.003.028-.005-.046.08-.297.078-.227.193-.492.334-.815.251-.572.635-1.41.697-2.157l-.947-.078-.946-.079c-.03.359-.242.864-.543 1.55-.135.306-.285.649-.393.967-.1.296-.215.706-.17 1.116l.944-.103Z" mask="url(#a)"/>
  <mask id="b" width="6" height="14" x="8.752" y="20.712" fill="#000" maskUnits="userSpaceOnUse">
    <path fill="#fff" d="M8.752 20.712h6v14h-6z"/>
    <path d="M11.795 23.712c.053.436-.006.769.2 1.053l.13.055c-.604.492-1.362 1.988-1.47 2.805l.05.04c.125-.33.244-.66.358-.994l.087.044c-.014.514-.28 1.044-.354 1.659-.061.355-.121.623-.005.98.096.17.295 1.392.337 1.66l-.105.196c.17.159.333.324.49.495.007.343-.023.278-.205.626.006.234.046.14-.062.31-.68-.196-1.42-1.77-1.48-2.393-.154-1.568 1.066-5.4 2.03-6.536Zm-.988 7.371c-.326.57-.224 1.161.5 1.248.182-.349.212-.283.205-.626a9.268 9.268 0 0 0-.49-.495l-.215-.127Z"/>
  </mask>
  <path fill="#5296FF" d="M11.795 23.712c.053.436-.006.769.2 1.053l.13.055c-.604.492-1.362 1.988-1.47 2.805l.05.04c.125-.33.244-.66.358-.994l.087.044c-.014.514-.28 1.044-.354 1.659-.061.355-.121.623-.005.98.096.17.295 1.392.337 1.66l-.105.196c.17.159.333.324.49.495.007.343-.023.278-.205.626.006.234.046.14-.062.31-.68-.196-1.42-1.77-1.48-2.393-.154-1.568 1.066-5.4 2.03-6.536Zm-.988 7.371c-.326.57-.224 1.161.5 1.248.182-.349.212-.283.205-.626a9.268 9.268 0 0 0-.49-.495l-.215-.127Z"/>
  <path fill="#5296FF" d="m11.795 23.712.944-.113-.26-2.164-1.408 1.663.724.614Zm.2 1.053-.77.557.155.213.24.103.375-.873Zm.13.055.6.737 1.217-.991-1.443-.619-.375.873Zm-1.47 2.805-.942-.125-.07.53.417.335.595-.74Zm.05.04-.596.74 1.018.818.465-1.22-.887-.338Zm.358-.994.429-.848-.976-.493-.352 1.034.899.307Zm.087.044.95.025.016-.601-.537-.272-.43.848Zm-.354 1.659.936.162.005-.024.003-.024-.944-.114Zm-.005.98-.902.295.029.09.046.08.827-.465Zm.337 1.66.837.45.151-.282-.05-.316-.938.148Zm-.105.196-.837-.45-.346.644.533.5.65-.694Zm.49.495.95-.02-.007-.358-.243-.265-.7.643Zm-.205.626-.842-.44-.114.218.006.246.95-.024Zm-.062.31-.264.913.684.198.382-.601-.802-.51Zm-1.48-2.393-.946.093.945-.093Zm1.041.835.483-.818-.829-.49-.478.836.824.472Zm.5 1.248-.113.943.652.078.303-.582-.842-.439Zm.205-.626.95-.02-.007-.358-.243-.265-.7.643Zm-.49-.495.65-.693-.077-.072-.09-.053-.483.818Zm.773-7.498-.943.113c.01.075.014.151.019.245.004.083.01.205.021.321.026.249.09.595.334.931l.769-.557.769-.558c.038.053.029.09.019-.008-.006-.057-.009-.118-.015-.228-.005-.1-.012-.23-.03-.372l-.943.113Zm.2 1.053-.375.873.13.055.374-.873.375-.873-.13-.055-.374.873Zm.13.055-.6-.737c-.459.373-.872 1.015-1.165 1.58-.3.579-.572 1.27-.647 1.837l.942.125.942.125c.033-.25.193-.716.45-1.213.264-.509.532-.861.677-.98l-.6-.737Zm-1.47 2.805-.595.74.05.04.595-.74.595-.74-.05-.04-.595.74Zm.05.04.887.339c.13-.341.253-.684.37-1.027l-.899-.306-.9-.307c-.11.324-.225.645-.346.962l.888.339Zm.358-.994-.429.848.087.044.429-.848.429-.848-.087-.044-.429.848Zm.087.044-.95-.025c-.003.12-.037.272-.118.558-.072.253-.181.616-.229 1.012l.943.114.944.114c.026-.219.086-.427.17-.723.074-.26.18-.632.19-1.025l-.95-.025Zm-.354 1.659-.936-.162c-.053.308-.174.818.029 1.437l.902-.296.903-.295a.356.356 0 0 1-.018-.145c.004-.084.02-.167.056-.377l-.936-.162Zm-.005.98-.827.466c-.047-.084-.059-.141-.044-.09l.033.13c.028.124.06.286.093.46.065.35.124.712.144.84l.938-.146.939-.148c-.022-.138-.084-.52-.153-.892a13.654 13.654 0 0 0-.11-.54 4.407 4.407 0 0 0-.06-.238c-.015-.05-.054-.183-.125-.309l-.828.466Zm.337 1.66-.836-.45-.106.196.837.45.837.45.105-.197-.837-.45Zm-.105.196-.65.693c.153.143.3.291.44.445l.7-.643.7-.642a9.936 9.936 0 0 0-.54-.546l-.65.693Zm.49.495-.95.02.001.076v.004a.498.498 0 0 1 .042-.157l.016-.035a2.397 2.397 0 0 1-.024.04c-.03.052-.075.13-.132.239l.842.44.842.438c.034-.065.06-.11.087-.155.019-.032.076-.126.12-.231.117-.277.11-.535.106-.699l-.95.02Zm-.205.626-.95.024c.003.091.009.156.014.202l.001.012v.006-.01a.88.88 0 0 1 .063-.396c.024-.06.05-.1.053-.107l-.005.008a5.287 5.287 0 0 0-.04.062l.802.51.802.509.028-.044.039-.061a1.046 1.046 0 0 0 .147-.677l-.002-.018c0-.007-.002-.018-.002-.044l-.95.024Zm-.062.31.263-.912c.084.024.057.045-.066-.091a2.856 2.856 0 0 1-.34-.497c-.25-.447-.38-.863-.392-.986l-.946.093-.945.093c.049.5.32 1.183.624 1.728.161.287.358.585.585.838.21.233.529.525.953.647l.264-.912Zm-1.48-2.393.945-.093c-.026-.261.003-.693.106-1.261.1-.552.257-1.174.451-1.792a15.28 15.28 0 0 1 .647-1.716c.236-.519.45-.877.605-1.06l-.725-.614-.724-.614c-.326.385-.626.932-.885 1.5a17.15 17.15 0 0 0-.731 1.936 17.033 17.033 0 0 0-.508 2.022c-.113.628-.179 1.263-.127 1.785l.945-.093Zm1.041.835-.824-.472c-.238.415-.412.993-.222 1.573.218.666.802 1.015 1.433 1.09l.113-.943.113-.943c-.06-.007-.04-.017.013.02a.362.362 0 0 1 .133.184c.021.065.012.099.014.085a.42.42 0 0 1 .052-.122l-.825-.472Zm.5 1.248.842.44c.034-.066.06-.11.087-.156.02-.032.076-.126.12-.231.117-.277.11-.535.106-.698l-.95.02-.95.019.001.076v.004a.51.51 0 0 1 .042-.157l.016-.035a2.64 2.64 0 0 1-.024.04c-.03.052-.075.13-.132.239l.842.44Zm.205-.626.7-.642a9.936 9.936 0 0 0-.54-.546l-.65.693-.65.693c.153.143.3.291.44.445l.7-.643Zm-.49-.495.483-.818-.215-.127-.483.818-.483.818.215.127.483-.818Z" mask="url(#b)"/>
  <path fill="#5296FF" stroke="#5296FF" stroke-width=".95" d="M18.277 17.265c-.186.287-.498.74-.79 1.212-.144.234-.276.46-.378.66-.106.209-.159.35-.173.42l-.073.392-.4-.005h-.046l-.03.043a1.766 1.766 0 0 0-.192.43.648.648 0 0 0-.029.298c.005.02 0 .01.013.015l.594.219-.377.51a.922.922 0 0 1-.283.259l-.021.01a.55.55 0 0 1-.188.338.964.964 0 0 1-.258.148l-.421.176-.098-.209-.094-.002c-.169-.003-.24.026-.3.064-.098.06-.185.152-.399.357h-.001c-.094.09-.187.181-.28.273l-.178.178-.227-.046c-.075.113-.158.248-.26.406-.194.304-.442.682-.711.972l-.71.763-.11-1.036a1.27 1.27 0 0 1 .124-.645c.08-.18.189-.36.29-.518.204-.318.37-.565.46-.788-.01-.195-.029-.267-.1-.534l-.188-.712.574.096c.032-.066.072-.158.123-.291.06-.162.14-.383.25-.572.106-.184.289-.427.598-.523.122-.038.216-.126.349-.354.033-.055.065-.115.1-.181.035-.065.075-.137.116-.208a2.41 2.41 0 0 1 .322-.45c.062-.067.13-.157.215-.275.078-.11.175-.25.272-.378.186-.244.466-.57.863-.697l.627-.2-.006.425a5.98 5.98 0 0 1 .754-.682l.677.642Z"/>
  <path fill="#5296FF" stroke="#5296FF" stroke-width=".95" d="M14.896 20.656c-.164.399-.398.787-.585 1.11-.2.347-.34.61-.394.826l-.033.131-.097.094-.012.013a2.948 2.948 0 0 0-.125.174c-.075.113-.16.249-.261.408-.194.303-.443.682-.712.971l-.71.763-.11-1.036a1.27 1.27 0 0 1 .124-.645c.08-.18.189-.36.29-.518.225-.35.408-.611.488-.853l.02-.064.038-.055c.355-.522.846-1.288 1.275-1.803l.804.484Zm.873-2.334.055.05.21.186-.062.273c-.051.227-.055.372-.085.611-.03.234-.08.484-.228.795l-.32.676-.476-.576c-.289-.35-.426-.73-.313-1.14.094-.341.351-.624.555-.843l.317-.34.347.308Zm-4.284 10.02c-.01.067-.019.15-.032.253-.012.1-.028.214-.046.327-.018.11-.04.23-.071.341a1.231 1.231 0 0 1-.149.353l-.541.818-.306-.932c-.16-.488-.07-.877-.012-1.208l.042-.245.226-.105.22-.103.8-.372-.13.873Z"/>
  <mask id="c" width="3" height="5" x="11.839" y="22.593" fill="#000" maskUnits="userSpaceOnUse">
    <path fill="#fff" d="M11.839 22.593h3v5h-3z"/>
    <path d="M13.262 24.69c.034.326-.11.453-.288.793l-.126.083c-.045-.333.083-.641.18-.973l.234.097Z"/>
  </mask>
  <path fill="#5296FF" d="M13.262 24.69c.034.326-.11.453-.288.793l-.126.083c-.045-.333.083-.641.18-.973l.234.097Z"/>
  <path fill="#5296FF" d="m13.262 24.69.945-.099-.059-.56-.52-.217-.366.876Zm-.288.793.523.793.205-.135.114-.217-.842-.44Zm-.126.083-.941.127.201 1.498 1.263-.832-.523-.793Zm.18-.973.367-.877-.978-.41-.3 1.018.912.268Zm.234.097-.945.1c0 .003-.002-.02.005-.057.007-.036.017-.058.016-.055a1.64 1.64 0 0 1-.058.103c-.036.061-.09.153-.147.261l.841.441.842.441c.032-.061.062-.113.102-.182.035-.06.091-.154.14-.257.12-.256.186-.542.149-.894l-.945.1Zm-.288.793-.523-.793-.126.083.523.793.523.793.126-.083-.523-.793Zm-.126.083.942-.127a.395.395 0 0 1 .019-.138c.012-.05.028-.106.052-.182l.08-.259-.912-.267-.912-.268c-.028.095-.11.346-.156.531-.053.223-.098.51-.054.837l.941-.127Zm.18-.973-.366.876.233.098.367-.877.367-.876-.233-.098-.367.877Z" mask="url(#c)"/>
  <path fill="#5296FF" stroke="#5296FF" stroke-width=".95" d="M35.95 17.146c.276.071.565.158.824.268.25.107.52.255.71.475a.983.983 0 0 1 .215.933c-.087.314-.314.604-.621.882-.348.38-.837.931-1.33 1.45-.454.478-.94.958-1.353 1.278-.025.048-.057.112-.098.187a374.84 374.84 0 0 1-1.435 2.592 252.39 252.39 0 0 1-1.805 3.194l-.105-.042a.653.653 0 0 0-.114.162c-.007.022-.022.073.004.327l.03.284-.237.159-.267.18-.207.14-.233-.093c-.13-.05-.54-.144-.763-.535l-.141-.246-.08.072-.223-.038-.436-.074-.57-.097.205-.54c.02-.052.045-.109.072-.17l-.155.005-.09.004c-.023.001-.055.004-.081.004a.643.643 0 0 1-.302-.06c-.105-.05-.181-.13-.202-.15-.037-.037-.073-.074-.135-.13l-.163-.15.009-.22.01-.259.006-.156-.283-.155.373-.444c.056-.066.088-.103.113-.135a.3.3 0 0 0 .029-.04s.01-.011.04-.17l.042-.202.176-.109c.148-.09.303-.213.483-.346l.778-.58-.002.07a2.51 2.51 0 0 1 .446-.41c.476-.446.812-.74 1.067-.965.261-.23.424-.376.574-.537.18-.193.343-.415.616-.827l-.547.188c-.787.269-1.707.579-2.62.86-.912.281-1.827.538-2.6.696a8.305 8.305 0 0 1-1.06.157 2.493 2.493 0 0 1-.764-.043l-.097-.03c-.22-.074-.495-.25-.713-.42-.115-.09-.23-.19-.33-.293a1.334 1.334 0 0 1-.262-.366.666.666 0 0 1-.053-.3.963.963 0 0 1 .034-.203c.029-.11.076-.221.127-.304.155-.258.44-.34.591-.374.184-.041.392-.055.578-.06.19-.004.384.001.544.005.171.005.285.008.351.003.741-.049 2.15-.428 3.63-.891 1.46-.457 2.927-.976 3.754-1.27l.045-.017.048-.006c.465-.066.913-.195 1.414-.328.074-.033.16-.091.275-.199.13-.121.251-.258.43-.445.345-.358.801-.788 1.517-1.117l.154-.07.164.041Zm-7.688 9.72c.014-.002-.03.058-.093.14l.002.038-.055.034a8.6 8.6 0 0 1-.136.167.463.463 0 0 0 .293.092l.027-.053-.038-.419Z"/>
  <path fill="#5296FF" stroke="#5296FF" stroke-width=".95" d="M35.95 17.146c.274.071.564.157.823.268.251.107.52.255.71.475a.983.983 0 0 1 .215.933c-.09.324-.327.623-.648.91l-.138.122-.184-.002c-.282-.005-.433.018-.57.06-.138.04-.264.096-.491.192l-.077.128-.075.122-.13.06-.164.077-.266.124-.23-.18c-.062-.05-.208-.088-.494.025-.269.106-.53.302-.67.46l-.15.169-.226-.01-.366-.017-.345-.015-.091-.334-.044-.162-.043-.156.061-.15c.113-.274.304-.484.443-.639.153-.17.268-.296.357-.454l.083-.146.155-.063a.971.971 0 0 0 .29-.206c.13-.121.251-.258.431-.445.345-.358.8-.788 1.517-1.117l.153-.07.163.041Zm-5.298 7.234c.049.55-.273.854-.42 1.024a1.11 1.11 0 0 0-.213.336l.098.023-.1.46-.025.12-.063.287-.286.072-.121.03-.02.006-.021.003c-.168.027-.208.046-.23.058-.04.021-.077.051-.217.167-.044.05-.07.083-.1.118-.018.022-.091.115-.204.176a.592.592 0 0 1-.203.061c-.021.028-.042.057-.064.084-.1.126-.234.288-.303.357l-.134.133-.189.005a3.47 3.47 0 0 1-.172.007.639.639 0 0 1-.301-.06c-.105-.05-.181-.13-.202-.15-.037-.037-.073-.075-.135-.131l-.163-.149.009-.222.01-.257.007-.156-.284-.155.373-.443a6.451 6.451 0 0 0 .142-.175s.009-.013.04-.17l.042-.204.176-.108c.148-.091.303-.213.483-.347l.778-.578-.002.07c.136-.158.297-.313.485-.44l.1-.065.117-.013c.037-.003.107-.023.268-.075.132-.042.319-.102.505-.128l.494-.069.045.498Zm-2.39 2.485c.014 0-.03.058-.093.141l.002.037-.054.033a8.404 8.404 0 0 1-.137.17.469.469 0 0 0 .325.092l-.043-.473Z"/>
  <path fill="#5296FF" stroke="#5296FF" stroke-width=".95" d="M30.652 24.38c.049.55-.272.854-.418 1.024a1.11 1.11 0 0 0-.214.336l.098.023-.1.46-.026.12-.063.287-.285.072-.121.03-.02.006-.021.003c-.17.027-.21.046-.232.058-.042.023-.08.056-.247.193l-.382.317-.3-.397c-.022-.03-.048-.062-.066-.088a.742.742 0 0 1-.07-.12.97.97 0 0 1-.04-.105 3.615 3.615 0 0 0-.028-.084l-.072-.208.112-.19.202-.34.093-.159.114-.035c.032-.028.077-.072.135-.133.116-.123.26-.29.41-.468.304-.363.59-.726.701-.862l.737-.896.103 1.156Zm3.334-4.763c-.12.215-.27.39-.395.528l.087.004.004.45v.166l.003.217-.163.144-.132.115-.197.173-.25-.073-.227-.068-.115-.033-.086-.085c-.185-.183-.368-.353-.513-.535a2.376 2.376 0 0 1-.387-.73l-.191-.545.573-.081c.478-.068.937-.201 1.453-.338l1.088-.29-.552.981Z"/>
  <path fill="#5296FF" stroke="#5296FF" stroke-width=".95" d="m30.402 26.495.12.111a.63.63 0 0 1 .159.246c.033.098.035.195.036.221.002.045.003.092.01.165l.01.122-.048.112-.075.171a.719.719 0 0 1-.137.211c-.067.07-.144.115-.174.133-.041.025-.085.05-.152.094l-.485.318-.216-.539-.209-.52-.104-.262.18-.218c.043-.052.07-.09.096-.124.02-.026.063-.085.116-.137.133-.127.294-.175.397-.209l.27-.09.206.195Z"/>
  <path fill="#5296FF" stroke="#5296FF" stroke-width=".95" d="m30.123 26.986.208.522.006.013.026.077.084.257-.18.204c-.09.102-.2.241-.315.342a1.457 1.457 0 0 1-.504.282l-1.01.356.413-.988c.152-.363.253-.652.38-1.037l.408-1.235.485 1.207Zm2.333-5.65c.105.003.162.001.243.002.066.001.154.004.247.024.22.047.367.174.49.285l.172.156-.018.232c-.01.147-.02.312-.102.474-.035.068-.08.13-.105.164l-.11.16-.143.222-.262-.004-.114-.001h-.11a1.227 1.227 0 0 1-.267-.028c-.234-.055-.398-.19-.546-.357l-.126-.142.006-.19c.006-.173.03-.337.123-.503.04-.072.086-.131.123-.177l.06-.07.06-.074.147-.179.232.006Zm2.169-16.81c.465-.01.96.072 1.423.224.462.152.91.38 1.274.676.361.294.667.68.779 1.15.017.072.028.155.038.243l.13-.021.175.19.206.224.11.118.013.16c.015.161.055.48.059.78.002.152-.005.32-.032.479a1.155 1.155 0 0 1-.2.502l-.152.201a1.104 1.104 0 0 1-.125.36l-.14.25-.288-.006-.337-.01-.199-.006-.007.025a1.3 1.3 0 0 0-.026.103l-.002.01.01.21-.182.151-.144.12-.287.239-.3-.224a1.992 1.992 0 0 1-.516-.595c-.128-.212-.19-.345-.31-.513l-.032-.043-.192-.262.176-.275c.313-.486.472-.79.558-1.093.063-.224.092-.468.093-.812l-.102-.013a34.55 34.55 0 0 0-.718-.09 9.907 9.907 0 0 0-.667-.056h-.042c-.014.043-.028.086-.044.13l-.1.268-.284.036c-.145.02-.351.036-.596.073a2.88 2.88 0 0 0-.284.053l-.024.007c-.462.489-1.094.843-1.68 1.132-.652.32-1.222.557-1.666.838-.41.26-.772.538-1.169.837-.382.288-.791.588-1.274.88-.13.111-.256.191-.385.243a.952.952 0 0 1-.169.05l.01.026-.192.211-.16.18-.2.22-.252-.073c-.027.055-.058.122-.094.186-.101.18-.259.401-.536.552-.235.127-.514.18-.84.166l-.255.159-.14.086-.162-.019c-.128-.014-.29-.03-.434-.086a1.024 1.024 0 0 1-.35-.24l-.172.228-.095-.499-.076-.076.05-.057-.08-.412a1.022 1.022 0 0 1 0-.336c.014-.094.038-.19.06-.274.038-.15.068-.256.091-.35l-.03-.138-.038-.19.105-.165c.127-.195.364-.431.61-.655.258-.235.569-.493.88-.735.31-.243.627-.475.899-.657.135-.092.263-.174.376-.239a1.85 1.85 0 0 1 .329-.157l.23-.075.132.096.033-.044c.25-.351.72-.716 1.238-1.052.542-.353 1.2-.714 1.874-1.042a21.763 21.763 0 0 1 2-.859c.619-.226 1.2-.395 1.626-.443l.221-.024.028.027c.295-.12.623-.175.945-.183Z"/>
  <path fill="#5296FF" stroke="#5296FF" stroke-width=".95" d="m33.813 4.837.113.108.134.13.01.186.004.074.011.008c.043.03.118.081.183.147.169.172.21.376.242.547l.048.253-.187.178-.127.12-.177.169-.239-.046a4.39 4.39 0 0 0-.402-.053c-.13-.013-.283-.026-.425-.05a1.925 1.925 0 0 1-.243-.057l.004.028-.113.153c-.34.467-.866.572-1.236.626-.219.032-.359.044-.537.075-.16.029-.279.064-.37.112-.12.063-.239.176-.46.362-.174.146-.456.375-.798.428l-.202.03-.065-.05c-.173.113-.366.265-.576.428a7.644 7.644 0 0 1-.404.3c-.12.082-.282.18-.451.222l-.309.078-.157-.215-.06.003-.14.005-.996.039.598-.798.206-.275c.25-.35.72-.716 1.238-1.052.542-.353 1.2-.713 1.874-1.041a21.762 21.762 0 0 1 2-.859c.619-.226 1.2-.395 1.626-.443l.222-.026.16.156Z"/>
  <path fill="#5296FF" stroke="#5296FF" stroke-width=".95" d="M28.54 6.956a1.09 1.09 0 0 1 .953-.202l.3.075.054.304.017.102.04.223-.15.17-.372.43-.06.07-.084.041-.08.04v.001c-.216.113-.469.312-.753.534a7.585 7.585 0 0 1-.404.3 1.5 1.5 0 0 1-.451.222l-.309.076-.157-.214-.06.003-.14.005-.996.038.598-.798.206-.274.174-.231.284.047c.225.038.368-.003.48-.066.13-.073.247-.191.393-.361.125-.145.308-.379.517-.535Zm9.903.032.206.224.141.152-.016.207c-.032.415-.075.7-.257.964-.078.112-.176.213-.258.299-.09.094-.195.206-.33.37l-.303.362-.365-.3-.094-.077-.215-.176.049-.275c.04-.219.071-.327.089-.476.015-.126.003-.19-.014-.23l-.29-.672.636.007.11-.235.104-.226.245-.042.133-.022.255-.044.174.19ZM25.7 37.65c.391.233.493.61.505.908.01.258-.05.57-.067.698l-.002.015-.003.015c-.034.183-.089.49-.181.778-.085.263-.238.64-.55.852l-.174.119-.206-.05-.095-.024-.272-.067-.074-.27-.096-.36-.048-.09-.092-.172.058-.189c.087-.286.136-.613.232-1.025a4.02 4.02 0 0 1 .168-.563c.069-.171.17-.368.334-.517l.26-.239.304.181Z"/>
  <path fill="#5296FF" stroke="#5296FF" stroke-width=".95" d="m24.948 40.704.054.046c.218.19.443.412.466.755a1.22 1.22 0 0 1-.04.368c-.026.112-.05.193-.077.328l-.071.345-.352.032-.14.012-.208.019-.155-.14-.046-.043-.11-.087a.957.957 0 0 0-.102-.057c-.07-.035-.213-.1-.367-.192l-.234-.14.005-.274.002-.153.002-.139.077-.116a1.021 1.021 0 0 0 .11-.21c.003-.01.015-.05.027-.08.083-.222.237-.345.445-.486l.578-.395.136.607Z"/>
  <mask id="d" width="12" height="20" x="20.81" y="24.745" fill="#000" maskUnits="userSpaceOnUse">
    <path fill="#fff" d="M20.81 24.745h12v20h-12z"/>
    <path d="M29.912 27.745c.04.605.119.553-.335 1.006.118.206.296.238.526.33l.267-.18c-.259.96-.572.795-.914 1.422-.315.577-.218 2.395-1.322 2.328-.005-.05.109.734.208.49-.418 1.027-.973 1.993-1.403 3.015-.283.635-.493 1.41-.713 1.81-.179.423-.341.827-.559 1.232-.073.385-.195 1.097-.531 1.325l-.095-.024-.112-.412c.016.524-.188.551-.238 1.022.434.377.312.435.196.996l-.14.013-.05-.045c-.243-.217-.383-.227-.651-.389-.095.206-.174.346-.212.571-.038.32.02.291-.16.454l-.002-.002a.85.85 0 0 0 .08-.08.185.185 0 0 0 .055-.1c.009-.053.008-.126.026-.273-.091-.556-.011-1.342.037-1.98.032-.417.05-.77-.004-.954l-.033-.078c-.247.606-.367 1.78-.448 2.468l-.088-.52c-.087.04-.141.12-.185.22l-.122.329-.18.112c.197-1.492 1.484-5.453 2.253-6.72.882-2.223 2.152-4.787 3.302-6.898l.436.074a14 14 0 0 1 .306-.264c.043.043.156.147.183.192.332-.117.39-.226.622-.49Zm-6.63 14.591v-.002l.09-.085-.09.087Zm2.335-7.208-.027.14-.245-.019-.073.156c.132.312.148.389.364.641l.114.013c-.09-.294.051-.684.337-.799l.054-.204-.016-.445-.087-.029-.42.546Z"/>
  </mask>
  <path fill="#5296FF" d="M29.912 27.745c.04.605.119.553-.335 1.006.118.206.296.238.526.33l.267-.18c-.259.96-.572.795-.914 1.422-.315.577-.218 2.395-1.322 2.328-.005-.05.109.734.208.49-.418 1.027-.973 1.993-1.403 3.015-.283.635-.493 1.41-.713 1.81-.179.423-.341.827-.559 1.232-.073.385-.195 1.097-.531 1.325l-.095-.024-.112-.412c.016.524-.188.551-.238 1.022.434.377.312.435.196.996l-.14.013-.05-.045c-.243-.217-.383-.227-.651-.389-.095.206-.174.346-.212.571-.038.32.02.291-.16.454l-.002-.002a.85.85 0 0 0 .08-.08.185.185 0 0 0 .055-.1c.009-.053.008-.126.026-.273-.091-.556-.011-1.342.037-1.98.032-.417.05-.77-.004-.954l-.033-.078c-.247.606-.367 1.78-.448 2.468l-.088-.52c-.087.04-.141.12-.185.22l-.122.329-.18.112c.197-1.492 1.484-5.453 2.253-6.72.882-2.223 2.152-4.787 3.302-6.898l.436.074a14 14 0 0 1 .306-.264c.043.043.156.147.183.192.332-.117.39-.226.622-.49Zm-6.63 14.591v-.002l.09-.085-.09.087Zm2.335-7.208-.027.14-.245-.019-.073.156c.132.312.148.389.364.641l.114.013c-.09-.294.051-.684.337-.799l.054-.204-.016-.445-.087-.029-.42.546Z"/>
  <path fill="#5296FF" d="m29.912 27.745.948-.062-.15-2.277-1.51 1.711.712.628Zm-.335 1.006-.671-.672-.514.513.36.63.825-.47Zm.526.33-.349.883.466.184.415-.28-.532-.788Zm.267-.18.917.247.663-2.457-2.11 1.422.53.788Zm-.914 1.422-.834-.456.834.456Zm-1.322 2.328-.945.099.084.8.803.049.058-.948Zm.208.49.88.358-1.76-.716.88.358Zm-1.403 3.015.867.386.004-.009.004-.009-.875-.368Zm-.713 1.81-.832-.459-.024.044-.02.046.876.37Zm-.559 1.232-.837-.45-.07.129-.026.144.933.177Zm-.531 1.325-.228.922.41.102.351-.238-.533-.786Zm-.095-.024-.917.25.147.539.542.134.228-.923Zm-.112-.412.916-.25-1.866.28.95-.03Zm-.238 1.022-.944-.1-.053.492.374.325.623-.717Zm.196.996.085.946.702-.063.143-.69-.93-.193Zm-.14.013-.637.705.308.278.413-.037-.085-.946Zm-.05-.045.636-.706-.003-.002-.634.708Zm-.651-.389.49-.814-.91-.547-.443.964.863.397Zm-.212.571-.937-.157-.004.022-.002.022.943.113Zm-.16.454-.672.672.64.64.67-.608-.638-.704Zm-.002-.002-.638-.703-.74.67.706.705.672-.672Zm.08-.08-.7-.642-.003.004.704.638Zm.055-.1.933.177.002-.009-.935-.168Zm.026-.273.943.113.016-.134-.022-.133-.937.154Zm.037-1.98.947.072-.947-.072Zm-.004-.954.913-.264-.016-.055-.023-.053-.874.372Zm-.033-.078.874-.372-.892-2.1-.862 2.113.88.359Zm-.448 2.468-.937.158 1.88-.047-.943-.11Zm-.088-.52.937-.158-.207-1.226-1.129.521.399.863Zm-.185.22-.87-.383-.01.026-.01.026.89.33Zm-.122.329.502.806.276-.171.113-.305-.89-.33Zm-.18.112-.942-.124-.263 1.991 1.706-1.06-.501-.807Zm2.253-6.72.812.493.041-.068.03-.074-.884-.35Zm3.302-6.898.16-.937-.67-.114-.324.597.834.454Zm.436.074-.16.937.449.076.34-.301-.63-.712Zm.306-.264.67-.674-.614-.608-.664.553.608.73Zm.183.192-.814.49.4.663.73-.257-.316-.896Zm-6.008 14.101-.85.425.583 1.165.931-.91-.664-.68Zm0-.002-.654-.69-.512.485.316.63.85-.425Zm.09-.085.663.68-1.317-1.37.653.69Zm2.245-7.12-.752-.58-.137.177-.043.221.932.181Zm-.027.14-.076.947.846.067.162-.833-.932-.181Zm-.245-.02.075-.947-.654-.052-.28.594.859.405Zm-.073.156-.86-.406-.181.386.166.392.875-.372Zm.364.641-.723.617.244.286.374.041.105-.944Zm.114.013-.105.944 1.433.16-.419-1.38-.909.276Zm.337-.799.353.882.444-.178.122-.462-.92-.242Zm.054-.204.918.242.036-.136-.005-.14-.95.034Zm-.016-.445.95-.034-.024-.664-.632-.205-.294.903Zm-.087-.029.294-.903-.637-.208-.41.531.753.58Zm3.874-6.837-.948.063c.006.087.012.16.018.22.005.064.009.1.01.13.005.067-.007 0 .02-.1.032-.116.087-.181.079-.17a8.774 8.774 0 0 1-.185.192l.671.671.671.672a4.47 4.47 0 0 0 .314-.334c.103-.126.222-.3.285-.537a1.57 1.57 0 0 0 .041-.522l-.014-.17a7.568 7.568 0 0 1-.014-.177l-.948.063Zm-.335 1.006-.825.471c.167.293.393.47.613.583.095.048.185.083.244.105.074.028.098.035.145.054l.35-.884.349-.883a4.285 4.285 0 0 0-.105-.04l-.042-.015a2.67 2.67 0 0 1-.073-.028.405.405 0 0 1 .133.114.43.43 0 0 1 .036.053l-.825.47Zm.526.33.531.787.267-.18-.53-.787-.532-.788-.266.18.53.787Zm.267-.18-.917-.247c-.093.343-.162.393-.188.42-.073.074-.39.33-.643.793l.834.456.834.455c.089-.163.1-.138.334-.377.281-.288.497-.637.663-1.253l-.917-.247Zm-.914 1.422-.834-.456c-.158.29-.234.658-.28.878-.06.281-.1.503-.162.714-.03.1-.058.175-.084.23a.567.567 0 0 1-.032.06l-.012.017a.208.208 0 0 1 .069-.045c.045-.02.075-.018.07-.018l-.057.948-.058.948a1.684 1.684 0 0 0 1.396-.571c.291-.328.44-.728.53-1.03.09-.307.154-.644.2-.864.058-.281.089-.357.088-.356l-.834-.455Zm-1.322 2.328.945-.1.003.04c0 .004.003.042.001.09a.93.93 0 0 1-.03.204 1.714 1.714 0 0 1-.212.398c-.234.19-.834.307-1.14.212a1.71 1.71 0 0 1-.37-.337 1.743 1.743 0 0 1-.07-.134c-.02-.048-.033-.088-.037-.1l-.016-.061a.766.766 0 0 1-.006-.032c-.002-.008-.003-.014 0 0l.014.081c.013.07.034.18.062.29.014.054.032.12.055.188.019.054.06.167.134.282.035.056.112.167.244.267a.974.974 0 0 0 1.347-.162c.09-.11.14-.218.164-.278l-.88-.358-.88-.358a.757.757 0 0 1 .126-.21.92.92 0 0 1 .993-.292.922.922 0 0 1 .486.367.7.7 0 0 1 .051.094l.011.028-.01-.034a2.698 2.698 0 0 1-.046-.23l-.006-.036a.85.85 0 0 0-.024-.096c-.004-.013-.016-.053-.037-.101a1.69 1.69 0 0 0-.07-.134 1.71 1.71 0 0 0-.37-.337c-.305-.095-.906.023-1.14.212a1.71 1.71 0 0 0-.213.399c-.01.042-.021.112-.024.139a1.681 1.681 0 0 0-.005.126l.001.03.004.042.945-.1Zm.208.49-.88-.358c-.195.478-.423.947-.67 1.448-.241.49-.501 1.014-.73 1.556l.877.369.875.368c.202-.48.435-.95.683-1.454a24.29 24.29 0 0 0 .725-1.571l-.88-.358Zm-1.403 3.015-.868-.387c-.16.358-.297.751-.407 1.06-.123.346-.205.56-.27.678l.832.46.832.458c.154-.281.288-.655.395-.957.12-.337.23-.65.353-.926l-.867-.386Zm-.713 1.81-.876-.369c-.187.443-.329.795-.52 1.15l.837.45.837.45c.244-.454.427-.91.597-1.312l-.875-.369Zm-.559 1.232-.933-.177c-.04.21-.079.42-.139.608a.97.97 0 0 1-.07.174c-.018.032-.001-.013.077-.066l.534.786.533.786c.456-.31.649-.829.736-1.1.103-.322.162-.66.195-.835l-.933-.176Zm-.531 1.325.228-.922-.095-.024-.228.922-.228.923.095.023.228-.922Zm-.095-.024.917-.25-.113-.412-.916.25-.917.25.112.412.917-.25Zm-.112-.412-.95.03a.656.656 0 0 1 0 .07l-.003.02-.002.005a.579.579 0 0 1-.015.038c-.046.11-.17.361-.212.758l.944.1.945.101c.008-.073.01-.07.075-.223a2.085 2.085 0 0 0 .167-.929l-.95.03Zm-.238 1.022-.623.717c.043.037.068.06.082.075.014.015.01.011-.004-.007a.613.613 0 0 1-.097-.382c0-.005 0 .003-.008.039a6.69 6.69 0 0 1-.015.06l-.02.082a6.488 6.488 0 0 0-.05.22l.93.192.931.192c.027-.13.043-.183.074-.316.023-.096.067-.289.052-.509-.039-.554-.41-.89-.628-1.08l-.624.717Zm.196.996-.086-.946-.14.012.085.947.085.946.141-.013-.085-.946Zm-.14.013.635-.706-.05-.045-.636.706-.636.705.05.045.636-.705Zm-.05-.045.633-.708a2.293 2.293 0 0 0-.52-.355c-.16-.08-.18-.083-.274-.14l-.49.814-.49.814c.174.104.358.188.397.208.041.02.063.033.11.074l.633-.707Zm-.651-.389-.863-.397c-.066.143-.222.428-.286.811l.937.157.937.157a.38.38 0 0 1 .027-.09c.009-.023.021-.05.04-.09l.07-.15-.862-.398Zm-.212.571-.943-.113c-.013.109-.018.19-.021.238l-.002.025c.001-.006.004-.04.015-.086a.783.783 0 0 1 .18-.338v-.001h.001-.002c0 .002-.003.004-.005.006a1.059 1.059 0 0 1-.021.02l.638.703.638.704c.04-.036.123-.11.196-.201.1-.123.18-.27.223-.45.03-.125.034-.252.035-.267.003-.04.005-.076.011-.127l-.943-.113Zm-.16.454.672-.671-.002-.002-.672.671-.672.672.002.002.672-.672Zm-.002-.002.638.704c.056-.05.104-.098.147-.146l-.704-.638-.704-.638c.002-.001.002-.001 0 0a.534.534 0 0 1-.015.015l.638.703Zm.08-.08.701.642c.134-.145.242-.328.287-.565l-.933-.177-.934-.178a.78.78 0 0 1 .18-.363l.7.641Zm.055-.1.935.168a1.471 1.471 0 0 0 .022-.199c.003-.038.006-.077.012-.129l-.943-.113-.943-.113a4.47 4.47 0 0 0-.02.215l-.004.039.006-.037.935.169Zm.026-.273.937-.154c-.067-.412-.007-1.044.047-1.754l-.947-.072-.947-.072c-.043.565-.143 1.506-.027 2.206l.937-.154Zm.037-1.98.947.071c.016-.21.03-.428.033-.625a2.356 2.356 0 0 0-.071-.664l-.913.264-.912.264c-.011-.038-.01-.05-.007-.02.002.028.004.072.003.136-.001.13-.011.295-.027.502l.947.072Zm-.004-.954.875-.372-.034-.078-.874.372-.874.371.033.078.874-.371Zm-.033-.078-.88-.359c-.169.414-.273.956-.345 1.415-.075.478-.128.969-.167 1.301l.944.111.943.111c.042-.357.09-.797.157-1.23.07-.45.15-.8.228-.99l-.88-.36Zm-.448 2.468.936-.158-.087-.52-.937.158-.937.158.088.52.937-.158Zm-.088-.52-.399-.863a1.34 1.34 0 0 0-.655.7l.87.383.869.382c.004-.009-.01.026-.05.076a.654.654 0 0 1-.237.184l-.398-.862Zm-.185.22-.89-.33-.123.328.891.33.89.331.123-.33-.89-.33Zm-.122.329-.501-.807-.181.112.502.807.501.807.18-.113-.5-.806Zm-.18.112.941.124c.086-.65.432-1.94.872-3.27.444-1.337.93-2.55 1.252-3.081l-.813-.493-.812-.492c-.446.735-.988 2.136-1.43 3.469-.445 1.341-.841 2.777-.952 3.619l.942.124Zm2.253-6.72.883.35c.863-2.174 2.114-4.701 3.254-6.794l-.835-.454-.834-.454c-1.16 2.13-2.45 4.73-3.351 7.002l.883.35Zm3.302-6.898-.16.936.436.075.16-.937.16-.936-.436-.075-.16.937Zm.436.074.63.712c.094-.084.19-.166.285-.246l-.609-.73-.608-.73c-.111.094-.22.188-.328.282l.63.712Zm.306-.264-.668.675.027.027.012.011.012.012a3.25 3.25 0 0 1 .057.056l.003.003-.017-.02a.65.65 0 0 1-.057-.083l.814-.49.814-.489a1.122 1.122 0 0 0-.142-.188 2.368 2.368 0 0 0-.152-.156l-.034-.032-.669.674Zm.183.192.316.896a1.929 1.929 0 0 0 .87-.586 7.611 7.611 0 0 0 .149-.171l-.713-.628-.712-.629-.087.1a8.22 8.22 0 0 1-.062.07.26.26 0 0 1-.04.044.164.164 0 0 1 .024-.017.288.288 0 0 1-.061.025l.316.896Zm-6.008 14.101.85-.425-.001-.002-.85.425-.85.425.002.002.85-.425Zm0-.002.652.69.09-.084-.653-.69-.653-.69-.09.084.653.69Zm.09-.085-.665-.679-.089.087.664.68.665.678.088-.086-.664-.68Zm2.245-7.12-.932-.182-.028.14.933.182.932.181.028-.14-.933-.182Zm-.027.14.075-.947-.245-.02-.075.947-.076.947.245.02.076-.947Zm-.245-.02-.86-.405-.073.155.86.406.859.405.073-.155-.86-.406Zm-.073.156-.875.371c.048.112.114.28.186.416.092.174.197.315.33.47l.723-.616.723-.616a.652.652 0 0 1-.097-.127 12.408 12.408 0 0 1-.117-.27l-.874.372Zm.364.641-.105.944.114.013.105-.944.105-.944-.114-.013-.105.944Zm.114.013.91-.276a.235.235 0 0 1 0 .163.38.38 0 0 1-.22.196l-.353-.882-.353-.882a1.528 1.528 0 0 0-.838.86 1.67 1.67 0 0 0-.055 1.097l.909-.276Zm.337-.799.919.242.053-.204-.918-.242-.92-.242-.053.204.919.242Zm.054-.204.949-.033-.016-.446-.949.034-.95.033.016.445.95-.033Zm-.016-.445.294-.903-.087-.029-.294.903-.294.904.087.028.294-.903Zm-.087-.029-.752-.58-.421.546.752.58.752.58.421-.545-.752-.58Z" mask="url(#d)"/>
  <path fill="#5296FF" stroke="#5296FF" stroke-width=".95" d="M28.574 32.806a.394.394 0 0 1 .092.099c.018.029.021.043.014.02a.91.91 0 0 1-.022-.072 3.228 3.228 0 0 1-.05-.253l-.005-.127-.03-.003c-.002-.002-.002-.005-.003-.008a.814.814 0 0 0-.034-.066.855.855 0 0 0-.179-.167c-.15-.05-.454.004-.575.099-.011.015-.02.034-.032.052l-.082-.01-.026.104-.028.11-.015.06-.028-.056-.813-1.626-.086 1.817c-.005.106-.04.186-.12.318-.073.121-.227.342-.31.62a.966.966 0 0 0-.037.448.763.763 0 0 0 .023.093 1.047 1.047 0 0 0-.294.287c-.071.104-.066.112-.128.173l-.093.092-.033.126-.006.022c-.16.126-.271.293-.337.458a1.193 1.193 0 0 0-.042.78l.033.11.08.082c.097.102.09.147.09.158-.001.048-.022.118-.096.282-.127.281-.423.834-.056 1.488l.1.179.2.05.197.05.215.052.178-.13.074-.055.05-.037.007-.005.173-.043.1-.182c.133-.24.253-.574.365-.886.118-.33.235-.663.367-.96l.004-.009c.208-.495.448-.98.694-1.48a23.84 23.84 0 0 0 .711-1.54l-.366-.149.024-.042a1.47 1.47 0 0 0 .065-.195m.07-.128c.008-.017.016-.03.019-.04.014-.054.014-.098.014-.102v-.028l-.028.001-.017.07v.002l-.019.076m.031.021-.002-.002-.029-.02m.031.022a.99.99 0 0 1-.07.128m.039-.15a.45.45 0 0 0-.394-.043c.017.09.045.227.078.326.102-.02.2-.054.256-.099.008-.01.013-.022.02-.034m.04-.15a4.445 4.445 0 0 1-.04.15m-.45-.147a.434.434 0 0 0-.098.088l-.054.087.074.03a.784.784 0 0 0 .078-.205Z"/>
  <path fill="#5296FF" stroke="#5296FF" stroke-width=".95" d="M27.572 30.507c.126.15.174.326.195.455.022.136.023.277.019.402a5.839 5.839 0 0 1-.029.364c-.011.116-.021.207-.026.285l-.07 1.107-.753-.814c-.261-.282-.31-.634-.3-.91.013-.276.088-.542.15-.73l.266-.806.548.647ZM23.44 10.583l.243.014.54.034-.104.532c-.012.064-.035.137-.055.212l.268.223.238.198-.086.298a1.44 1.44 0 0 1-.05.142l.277.031-.01.437c-.014.502-.149.851-.432 1.133a2.627 2.627 0 0 1-.392.307c-.135.091-.261.171-.406.278l-.136.1-.168-.008-.072-.004c-.147.146-.2.252-.265.38-.11.215-.24.457-.61.77-.85.829-1.688 1.67-2.514 2.522l-.307.318-.338-.284c-.059-.048-.152-.123-.221-.23a.874.874 0 0 1-.073-.139l-.043-.11-.07-.17.065-.172c.19-.51.335-.796.523-1.062.09-.126.185-.243.284-.366.045-.055.09-.115.141-.18-.058-.032-.137-.075-.24-.139l-.373-.231.2-.39c.22-.429.564-.78.878-1.081.331-.319.631-.587.875-.902l.221-.286.002.001c.078-.113.166-.21.254-.296.063-.06.135-.122.208-.182l-.077-.092-.292-.348.334-.307c.384-.353.713-.511.983-.618.289-.115.365-.133.45-.211l.15-.135.2.013Z"/>
  <path fill="#5296FF" stroke="#5296FF" stroke-width=".95" d="m22.426 14.82-.066.556-.02.167-.12.119c-.37.361-.74.725-1.106 1.091l-.02.078-.033-.026c-.455.456-.907.914-1.355 1.377l-.307.318-.338-.284c-.059-.048-.152-.122-.221-.228a.861.861 0 0 1-.073-.14c-.012-.03-.03-.08-.043-.11l-.07-.17.065-.173c.19-.51.335-.795.523-1.062.09-.125.185-.243.284-.366.075-.092.155-.195.25-.317l-.01-.133.174-.156.11-.099.275-.247.23.154c.01-.029.021-.058.034-.087a.97.97 0 0 1 .22-.325l.341-.312.228.236c.066-.078.155-.177.26-.27l.933-.83-.145 1.24Zm1.014-4.237.243.014.54.034-.103.532c-.03.152-.094.366-.125.486a1.79 1.79 0 0 0-.042.21l.033.17-.104.16-.164.255-.112.174-.203.036a4.093 4.093 0 0 0-.065.012l-.06.011a.996.996 0 0 1-.148.017 1.067 1.067 0 0 1-.29-.037l-.033.01a.862.862 0 0 0-.09.04c-.036.018-.093.047-.147.072l-.33.152-.234-.278-.39-.464-.293-.348.335-.307c.383-.353.712-.511.982-.618.29-.115.365-.133.45-.211l.149-.135.2.013Z"/>
  <path fill="#5296FF" stroke="#5296FF" stroke-width=".95" d="M23.024 12.819a.93.93 0 0 1 .226.092c.016.01.033.023.05.036l.086-.015.466-.08.082.466a.755.755 0 0 1-.047.431c-.048.114-.118.201-.15.242-.075.095-.075.1-.08.124l-.066.418-.425-.019-.269-.013-.157-.008-.053-.043-.56.265-.065-.672a.843.843 0 0 1 .06-.382c.037-.095.086-.185.13-.26.046-.077.096-.153.137-.215l.103-.157.187-.306.345.096Z"/>
  <path fill="#5296FF" stroke="#5296FF" stroke-width=".95" d="m22.986 11.717.995.155-.752.67c-.107.096-.42.371-.731.636-.155.131-.315.263-.45.369a4.976 4.976 0 0 1-.188.142 1.256 1.256 0 0 1-.187.114l-.858.398.194-.926c.075-.36.273-.617.475-.812.178-.172.436-.358.583-.48l.047-.04.057-.026c.048-.022.195-.1.299-.139a1 1 0 0 1 .516-.06ZM25.82 26.87l.343.079.358.083.01.367a2.46 2.46 0 0 1-.027.422c-.016.114-.022.155-.024.19.014.013.04.038.091.074l.591.405-.603.386c-.12.076-.536.295-.886.48l-.492.257-.143.076c-.619.72-1.532 1.198-2.35 1.596-.895.435-1.658.774-2.134 1.223l-.776.733-.025-1.068a4.318 4.318 0 0 0-.022-.375 1.013 1.013 0 0 1-.218-.168c-.142-.145-.268-.354-.395-.658l-.173-.413.404-.196c1.913-.933 3.703-1.854 5.442-3.035l.352-.219c.117-.068.232-.132.342-.192l.159-.086.175.04Z"/>
  <path fill="#5296FF" stroke="#5296FF" stroke-width=".95" d="m22.342 11.577.39.465.309.365-.369.306c-.236.196-.379.289-.529.434-.125.12-.183.217-.205.323l-.117.558-.529-.216-.083-.034a4.033 4.033 0 0 0-.248.214c-.23.214-.493.488-.763.775-.265.28-.54.575-.776.805a4.924 4.924 0 0 1-.341.31 1.245 1.245 0 0 1-.376.224l-.269.087-.205-.195c-.038-.036-.188-.17-.269-.27l-.199-.244.15-.279c.057-.105.153-.228.246-.339.1-.12.228-.261.37-.414a41.827 41.827 0 0 1 2.061-2.028c.306-.279.584-.52.745-.63l.228-.154.262-.678.517.615Z"/>
  <path fill="#5296FF" stroke="#5296FF" stroke-width=".95" d="M18.724 15.4c.053.358.033.696-.159.998-.176.279-.459.456-.73.604l-.153.083-.17-.036-.236-.047-.523-.109.168-.507c.097-.293.207-.56.392-.79.19-.238.43-.403.729-.551l.585-.29.097.645Z"/>
  <path fill="#5296FF" stroke="#5296FF" stroke-width=".95" d="M17.838 16.62a2.15 2.15 0 0 1-.324.77 2.41 2.41 0 0 1-.546.602l-.162.123-.2-.033c-.037-.006-.06-.008-.081-.01a.563.563 0 0 1-.188-.045c-.115-.049-.184-.13-.2-.146-.03-.033-.028-.033-.06-.067l-.221-.237.139-.292c.1-.212.26-.47.459-.693.19-.212.47-.454.827-.523l.678-.13-.12.68ZM36.33 8.963l.031.043.002.003c.149.206.274.447.354.578.025.042.05.08.074.114h.01l.17-.017.403-.041.104.391a.772.772 0 0 1 .01.325 1.425 1.425 0 0 1-.065.242 3.93 3.93 0 0 1-.197.435c-.088.173-.129.242-.202.386a2.88 2.88 0 0 0-.087.191l-.005.014-.002.005a.753.753 0 0 1-.178.309 1.658 1.658 0 0 1-.2.181 4.836 4.836 0 0 1-.464.31c-.162.098-.327.191-.463.267l-.224.126c-.021.054-.043.122-.077.227a2.769 2.769 0 0 1-.13.347 1.007 1.007 0 0 1-.306.387l-.294.213-.282-.227a.685.685 0 0 0-.275-.149.479.479 0 0 0-.194.001 2.562 2.562 0 0 0-.142.03c-.051.011-.12.027-.191.038a.985.985 0 0 1-.564-.064l-.37-.165.105-.391.1-.375.003-.013.005-.014c.044-.13.12-.268.197-.393a7.41 7.41 0 0 1 .296-.435c.225-.308.51-.665.8-1.022.592-.73 1.195-1.445 1.474-1.847l.38-.548.393.538Z"/>
  <path fill="#5296FF" stroke="#5296FF" stroke-width=".95" d="M33.77 12.676c.136-.017.298-.02.479.02.22.05.438.16.657.335l.413.332-.374.375a4.423 4.423 0 0 1-.172.16l.001.002c-.263.24-.846.717-1.452 1.05-.3.165-.64.316-.97.366-.334.05-.75.006-1.04-.344l-.09-.108-.017-.141c-.035-.302.057-.597.176-.84.122-.25.296-.49.483-.698.188-.209.402-.398.616-.543.204-.137.455-.268.71-.294l.687-.071-.108.399Zm-5.677 13.348c-.02.1-.042.197-.077.294l.133.074.009.27.004.107.01.275-.234.145-.118.069v.004c-.031.313-.097.571-.219.777a1.058 1.058 0 0 1-.459.42c-.306.151-.336.11-.44.272l-.264.414-.404-.278a1.258 1.258 0 0 1-.378-.379.891.891 0 0 1-.127-.472c0-.08.012-.164.021-.233l-.754-.172.573-.604a3.77 3.77 0 0 1 .408-.342c.169-.128.372-.275.575-.42.204-.145.412-.29.589-.413l.41-.287.978-.697-.236 1.176Zm-4.663 15.53c.11.263.143.381.23.494l.287.38-.378.287-.078.058a1.506 1.506 0 0 1-.099.218c-.06.106-.138.2-.222.303l-.025-.018-.071.068-.612.581-.18-.825c-.104-.483.012-.989.057-1.315l.03-.22.191-.118.182-.112.471-.291.216.51ZM37.582 9.097l.338.009.742.02-.329.665c-.172.349-.25.468-.48.774l-.335.443-.386-.4-.069-.072-.189-.195.074-.263a13.2 13.2 0 0 0 .158-.615l.09-.377.386.01Z"/>
</svg>
